<svg width="69" height="70" viewBox="0 0 69 70" fill="none" xmlns="http://www.w3.org/2000/svg">
<g clip-path="url(#clip0)">
<path d="M69 35C69 15.9462 53.5538 0.5 34.5 0.5C15.4462 0.5 0 15.9462 0 35C0 52.2197 12.6161 66.4927 29.1094 69.0809V44.9727H20.3496V35H29.1094V27.3992C29.1094 18.7527 34.2601 13.9766 42.1405 13.9766C45.914 13.9766 49.8633 14.6504 49.8633 14.6504V23.1406H45.5131C41.2275 23.1406 39.8906 25.8002 39.8906 28.5312V35H49.459L47.9294 44.9727H39.8906V69.0809C56.3839 66.4927 69 52.2197 69 35Z" fill="#1877F2"/>
<path d="M47.9294 44.9727L49.459 35H39.8906V28.5312C39.8906 25.8029 41.2275 23.1406 45.513 23.1406H49.8633V14.6504C49.8633 14.6504 45.9153 13.9766 42.1405 13.9766C34.2601 13.9766 29.1094 18.7527 29.1094 27.3992V35H20.3496V44.9727H29.1094V69.0809C32.6814 69.6397 36.3186 69.6397 39.8906 69.0809V44.9727H47.9294Z" fill="white"/>
</g>
<defs>
<clipPath id="clip0">
<rect width="69" height="69" fill="white" transform="translate(0 0.5)"/>
</clipPath>
</defs>
</svg>
