<svg width="76" height="62" viewBox="0 0 76 62" fill="none" xmlns="http://www.w3.org/2000/svg">
<path d="M23.9005 61.8772C52.5798 61.8772 68.2662 38.1166 68.2662 17.5115C68.2662 16.8366 68.2662 16.1648 68.2206 15.496C71.2723 13.2887 73.9065 10.5556 76 7.42476C73.1544 8.68637 70.1354 9.51335 67.0442 9.87804C70.2994 7.92956 72.7357 4.86452 73.8994 1.25356C70.8386 3.06999 67.49 4.35001 63.9981 5.03837C61.6471 2.53852 58.5378 0.883195 55.1513 0.328531C51.7648 -0.226132 48.2898 0.350794 45.2642 1.97003C42.2386 3.58927 39.831 6.16055 38.414 9.28597C36.997 12.4114 36.6496 15.9167 37.4254 19.2595C31.2262 18.9485 25.1616 17.3374 19.6253 14.5308C14.089 11.7241 9.20475 7.78469 5.2896 2.96812C3.29564 6.40078 2.68493 10.4643 3.58182 14.3315C4.4787 18.1986 6.81575 21.5785 10.1171 23.783C7.63557 23.7103 5.20805 23.0408 3.04 21.8313V22.0289C3.04099 25.6289 4.2872 29.1178 6.56726 31.9038C8.84732 34.6897 12.0209 36.6012 15.5496 37.314C13.254 37.9402 10.8454 38.0317 8.50896 37.5816C9.50575 40.6796 11.4457 43.3887 14.0576 45.3302C16.6695 47.2717 19.8228 48.3485 23.0766 48.41C19.8437 50.9512 16.1415 52.83 12.1818 53.939C8.22204 55.048 4.08251 55.3654 0 54.8731C7.13081 59.449 15.4278 61.8762 23.9005 61.8651" fill="#1DA1F2"/>
</svg>
