<svg width="1440" height="412" viewBox="0 0 1440 412" fill="none" xmlns="http://www.w3.org/2000/svg">
<path fill-rule="evenodd" clip-rule="evenodd" d="M-21 369.01L9.4375 362.012C39.875 354.014 100.75 340.017 161.625 311.024C222.5 282.031 283.375 239.041 344.25 189.053C405.125 138.065 466 81.0784 526.875 45.0869C587.75 9.09544 648.625 -5.901 709.5 2.0971C770.375 9.09544 831.25 38.0886 892.125 102.073C953 167.058 1013.88 268.034 1074.75 268.034C1135.63 268.034 1196.5 167.058 1257.38 110.072C1318.25 52.0853 1379.13 38.0886 1409.56 30.0905L1440 23.0921V412H1409.56C1379.13 412 1318.25 412 1257.38 412C1196.5 412 1135.63 412 1074.75 412C1013.88 412 953 412 892.125 412C831.25 412 770.375 412 709.5 412C648.625 412 587.75 412 526.875 412C466 412 405.125 412 344.25 412C283.375 412 222.5 412 161.625 412C100.75 412 39.875 412 9.4375 412H-21V369.01Z" fill="url(#paint0_linear)"/>
<defs>
<linearGradient id="paint0_linear" x1="709.5" y1="0" x2="709.5" y2="412" gradientUnits="userSpaceOnUse">
<stop stop-color="#00FFC2" stop-opacity="0.35"/>
<stop offset="0.859375" stop-color="#EDFFFB"/>
</linearGradient>
</defs>
</svg>
