<svg width="1440" height="447" viewBox="0 0 1440 447" fill="none" xmlns="http://www.w3.org/2000/svg">
<g filter="url(#filter0_d)">
<path fill-rule="evenodd" clip-rule="evenodd" d="M1440 341.458L1418.4 333.33C1396.8 325.202 1352.4 308.945 1309.2 292.688C1266 276.431 1221.6 260.174 1178.4 260.174C1134 260.174 1090.8 276.431 1047.6 243.917C1003.2 211.403 960 130.119 916.8 73.2193C872.4 16.3201 829.2 -16.1937 786 8.19167C741.6 32.577 698.4 113.862 654 187.018C610.8 260.174 567.6 325.202 523.2 349.587C480 373.972 436.8 357.715 392.4 341.458C349.2 325.202 306 308.945 261.6 325.202C218.4 341.458 174 390.229 130.8 406.486C87.5999 422.743 43.1999 406.486 21.5999 398.358L-5.72205e-05 390.229V439H21.5999C43.1999 439 87.5999 439 130.8 439C174 439 218.4 439 261.6 439C306 439 349.2 439 392.4 439C436.8 439 480 439 523.2 439C567.6 439 610.8 439 654 439C698.4 439 741.6 439 786 439C829.2 439 872.4 439 916.8 439C960 439 1003.2 439 1047.6 439C1090.8 439 1134 439 1178.4 439C1221.6 439 1266 439 1309.2 439C1352.4 439 1396.8 439 1418.4 439H1440V341.458Z" fill="url(#paint0_linear)"/>
</g>
<defs>
<filter id="filter0_d" x="-4.00006" y="0" width="1448" height="447" filterUnits="userSpaceOnUse" color-interpolation-filters="sRGB">
<feFlood flood-opacity="0" result="BackgroundImageFix"/>
<feColorMatrix in="SourceAlpha" type="matrix" values="0 0 0 0 0 0 0 0 0 0 0 0 0 0 0 0 0 0 127 0"/>
<feOffset dy="4"/>
<feGaussianBlur stdDeviation="2"/>
<feColorMatrix type="matrix" values="0 0 0 0 0 0 0 0 0 0 0 0 0 0 0 0 0 0 0.25 0"/>
<feBlend mode="normal" in2="BackgroundImageFix" result="effect1_dropShadow"/>
<feBlend mode="normal" in="SourceGraphic" in2="effect1_dropShadow" result="shape"/>
</filter>
<linearGradient id="paint0_linear" x1="720" y1="0" x2="720" y2="439" gradientUnits="userSpaceOnUse">
<stop stop-color="#00F0FF"/>
<stop offset="0.9998" stop-color="white"/>
<stop offset="0.9999" stop-color="#F0FAFB" stop-opacity="0"/>
<stop offset="1" stop-color="#00F0FF" stop-opacity="0"/>
</linearGradient>
</defs>
</svg>
