<svg width="92" height="92" viewBox="0 0 92 92" fill="none" xmlns="http://www.w3.org/2000/svg">
<g clip-path="url(#clip0)">
<path d="M90.1676 23.7109C89.6475 21.7537 88.6224 19.9674 87.195 18.5308C85.7676 17.0942 83.9878 16.0577 82.034 15.525C74.8412 13.5909 46.0912 13.5909 46.0912 13.5909C46.0912 13.5909 17.3412 13.5909 10.1485 15.525C8.19465 16.0577 6.41494 17.0942 4.98752 18.5308C3.56009 19.9674 2.53502 21.7537 2.01488 23.7109C0.0912478 30.935 0.0912476 46 0.0912476 46C0.0912476 46 0.0912478 61.065 2.01488 68.2891C2.53502 70.2464 3.56009 72.0327 4.98752 73.4693C6.41494 74.9059 8.19465 75.9424 10.1485 76.475C17.3412 78.4091 46.0912 78.4091 46.0912 78.4091C46.0912 78.4091 74.8412 78.4091 82.034 76.475C83.9878 75.9424 85.7676 74.9059 87.195 73.4693C88.6224 72.0327 89.6475 70.2464 90.1676 68.2891C92.0913 61.065 92.0912 46 92.0912 46C92.0912 46 92.0913 30.935 90.1676 23.7109Z" fill="#FF0302"/>
<path d="M36.6823 59.6799V32.3203L60.7277 46.0001L36.6823 59.6799Z" fill="#FEFEFE"/>
</g>
<defs>
<clipPath id="clip0">
<rect width="92" height="92" fill="white"/>
</clipPath>
</defs>
</svg>
